<svg id="Capa_1" data-name="Capa 1" xmlns="http://www.w3.org/2000/svg" viewBox="0 0 600 378.68"><defs><style>.cls-1{fill:#3e3e3d;}.cls-2{fill:#8fc2dd;}.cls-3{fill:#5fa7bf;}.cls-4{fill:#e6af41;}.cls-5{fill:#cbe593;}.cls-6{fill:#a1bf38;}</style></defs><path class="cls-1" d="M54.29,339.51H69.83v29.82c-8.09,6.09-19.22,9.35-29.72,9.35C17,378.68,0,362.82,0,340.66s17-38,40.43-38c12.91,0,23.62,4.41,30.77,12.71L60.27,325.44a24.87,24.87,0,0,0-19-8.3c-14.28,0-24.05,9.56-24.05,23.52,0,13.76,9.77,23.53,23.84,23.53A27,27,0,0,0,54.29,361Z"/><path class="cls-1" d="M142.5,363.77v13.65H85.58V303.91h55.55v13.65H102.49v16h34.12v13.24H102.49v17Z"/><path class="cls-1" d="M202.87,377.42,188.7,356.94H173.05v20.48H156V303.91h31.82c19.63,0,31.92,10.19,31.92,26.67,0,11-5.57,19.11-15.12,23.21l16.48,23.63Zm-16-59.65H173.05v25.62h13.86c10.4,0,15.65-4.83,15.65-12.81S197.31,317.77,186.91,317.77Z"/><path class="cls-1" d="M300.11,377.42,300,333.31l-21.63,36.34H270.7l-21.52-35.39v43.16h-16V303.91h14.07l27.51,45.68,27.09-45.68h14l.21,73.51Z"/><path class="cls-1" d="M327.72,370.17l5.77-12.81A43.23,43.23,0,0,0,357.75,365c10.08,0,14.18-3.36,14.18-7.88,0-13.76-42.74-4.3-42.74-31.61,0-12.49,10.08-22.89,31-22.89,9.24,0,18.69,2.21,25.51,6.51l-5.24,12.92a41.52,41.52,0,0,0-20.38-5.78c-10.08,0-14,3.78-14,8.4,0,13.55,42.74,4.2,42.74,31.19,0,12.29-10.19,22.79-31.19,22.79C346,378.68,334.23,375.21,327.72,370.17Z"/><path class="cls-1" d="M404.59,303.91h5.35v68.68h42.32v4.83H404.59Z"/><path class="cls-1" d="M511.59,356.73H469l-9.34,20.69h-5.78l33.82-73.51H493l33.81,73.51H521Zm-2-4.51-19.32-42.43-19.22,42.43Z"/><path class="cls-1" d="M600,358c0,12.39-9,19.43-27.09,19.43H540.15V303.91h30.66c15.75,0,25.3,6.62,25.3,18.8,0,8.71-4.93,14.38-12.28,16.8C594.23,341.5,600,347.81,600,358Zm-54.5-49.46v29.3h25.1c12.7,0,20-4.94,20-14.7s-7.35-14.6-20-14.6Zm49.15,49c0-10.5-7.67-15.12-21.74-15.12H545.5V372.8h27.41C587,372.8,594.65,368.18,594.65,357.57Z"/><path class="cls-2" d="M331.22,117.74a160.77,160.77,0,0,1,1.7,21.15q-7.1.69-14.25,1.52c-4.36.49-8.73,1-13.06,1.6-9,1.16-18,2.51-27,4.11q-6.74,1.22-13.4,2.62c-9.28,1.95-18.42,4.22-27.45,6.9q-6.89,2-13.64,4.41a236.94,236.94,0,0,0-27.94,11.83q-7,3.51-14,7.65A207.27,207.27,0,0,0,155,199c.73-1.12,7.69-11.35,21.35-24.22,3.32-3.11,7-6.34,11-9.59A192.76,192.76,0,0,1,209.05,150l-.13-.08L219.48,144l.07,0a195.14,195.14,0,0,1,21.11-9.56q5-1.95,10.41-3.72c6.7-2.2,13.82-4.17,21.45-5.86,3.48-.78,7.07-1.5,10.8-2.17,7.09-1.27,14.59-2.33,22.59-3.11,2.3-.24,4.66-.44,7.06-.63,1.5-.13,3-.24,4.5-.34C322.14,118.3,326.72,118,331.22,117.74Z"/><path class="cls-2" d="M359.86,233.33a122.72,122.72,0,0,1-9.75,11.07,162.64,162.64,0,0,1-27.73,22.46,194.61,194.61,0,0,1-18.33,10.64c-4.93,2.55-10.11,5-15.59,7.4,4.13-3.49,8-7,11.55-10.65a150.86,150.86,0,0,0,13-14.44,142.25,142.25,0,0,0,17.73-28.38,139.89,139.89,0,0,0,5.38-13.21,137.6,137.6,0,0,0,6.1-24.77c.57-3.78,1-7.49,1.3-11.16a188.4,188.4,0,0,0,.48-20.43c-.11-3.07-.25-6.07-.47-9q-.51-7.71-1.3-14.84s.57-8.34-2.16-20.78c0-.11,0-.21,0-.32-.17-1.87-.28-3.68-.37-5.46a83.9,83.9,0,0,1,0-9.65c.1-1.41.22-2.8.41-4.14a34.65,34.65,0,0,1,1.75-7.27,26.09,26.09,0,0,1,1.28-3.09A25.35,25.35,0,0,1,346.76,82l.33-.37h0a17.24,17.24,0,0,1,1.7-1.94,21.74,21.74,0,0,1,5.33-3.87,27.76,27.76,0,0,1,3.4-1.47c5.25-1.87,12.81-2.83,24.12-1.08-6.45.25-11.45,1.57-14.78,3.83a3.89,3.89,0,0,0-.39.28,10.73,10.73,0,0,0-2.11,2,10.06,10.06,0,0,0-2.3,5,12,12,0,0,0,0,3.12,19.74,19.74,0,0,0,1.7,5.92c.28.63.59,1.28.9,1.94.66,1.45,1.33,3,2,4.5,1.43,3.17,2.89,6.52,4.32,10.06.37.9.75,1.83,1.09,2.75s.74,1.78,1.07,2.68l.07.19h0c5.36,11.14,6.1,19.31,6.1,19.31,1.09,4.3,2,8.75,2.71,13.35.13.93.28,1.89.38,2.82.22,1.62.42,3.24.55,4.87a110.06,110.06,0,0,1,.28,16.88c-.16,3-.45,6-.88,9a102.58,102.58,0,0,1-4.79,19.57q-1.8,5.1-4.21,10.25A112.82,112.82,0,0,1,359.86,233.33Z"/><path class="cls-2" d="M453.64,116.77a8.35,8.35,0,0,1-1.57,3.1,12.28,12.28,0,0,1-3.76,3.17,33,33,0,0,1-4.15,1.94,59.73,59.73,0,0,1-6.08,2,146.19,146.19,0,0,1-15.8,3.21c-2.91.45-6,.87-9.18,1.28-4.77.59-9.82,1.15-15.11,1.68l-5.73.55c-1,.09-2,.19-3,.27-1.06-3.05-2.29-6.33-3.74-9.79-1.21-3-2.54-6-4.05-9.19l2.05-.14c6.44-.5,12.45-1.07,17.89-1.81,2.6-.36,5.11-.75,7.45-1.21a69.39,69.39,0,0,0,11.95-3.2,31.82,31.82,0,0,0,4.29-1.95,15.22,15.22,0,0,0,5.44-4.66,9.08,9.08,0,0,0,1.26-2.58c2.29-7.49-4.88-18-22.84-32.07,1,.63,33.6,21.08,42.8,38.82a24.28,24.28,0,0,1,1.5,3.63A11.9,11.9,0,0,1,453.64,116.77Z"/><path class="cls-3" d="M425,97.13,372.1,79.23a8.94,8.94,0,0,0-1.94,2l53.52,18.36A8.09,8.09,0,0,0,425,97.13Z"/><path class="cls-3" d="M417.67,104,368.59,86.65a14,14,0,0,0,.52,3.35L413,105.8A39.07,39.07,0,0,0,417.67,104Z"/><path class="cls-3" d="M392.14,109.49q4.16-.43,7.92-1L373,98.42q1.15,2.31,2.33,4.68Z"/><path class="cls-3" d="M330,146.06q-6.81.78-13.37,1.63l16.26,8.41c0-2.92,0-5.79,0-8.62Z"/><path class="cls-3" d="M275.1,154.48l55,32c.69-3.61,1.22-7.18,1.56-10.73l-42.79-23.85Q281.91,153.07,275.1,154.48Z"/><path class="cls-3" d="M232.81,165.86l85.08,57a122.25,122.25,0,0,0,5.68-12.59l-76.76-48.85Q239.65,163.45,232.81,165.86Z"/><path class="cls-3" d="M190.42,186.12l95.44,76.76a145.72,145.72,0,0,0,13.49-13.35l-94.94-71.46Q197.21,181.76,190.42,186.12Z"/><path class="cls-3" d="M382.7,74.57a30.55,30.55,0,0,0-4.83.77L425.8,91c-.34-1-.84-2.05-1.27-3Z"/><path class="cls-4" d="M283.28,94.58h-.78a1.59,1.59,0,0,1-.91-1.63c0-2.12,0-11.69,0-13.81v-.51C270,78,269,68.15,268.73,67.18c-.17-.69-.24-1.39-.35-2.09V62.82a3.57,3.57,0,0,1,.56,0,20.42,20.42,0,0,1,2.84.38,13.89,13.89,0,0,1,9.69,7.8.92.92,0,0,0,.13.18c0-2.46,0-4.86,0-7.25,0-.26-.09-.35-.34-.38-.56-.07-1.13-.15-1.68-.27a13.33,13.33,0,0,1-7.37-3.91,14,14,0,0,1-3.4-6.76c-.19-.85-.29-1.71-.44-2.57V47.75c.13,0,.26,0,.39,0a14.32,14.32,0,0,1,12.62,8l.18.36V48.52l-.45-.08c-.67-.11-1.35-.2-2-.35a13.11,13.11,0,0,1-7.05-4,14.37,14.37,0,0,1-3.33-7c-.14-.72-.23-1.45-.35-2.18V32.67a11.75,11.75,0,0,1,4.33.61,13.9,13.9,0,0,1,8.76,7.57,1.21,1.21,0,0,0,.1.16V33.45l-.41-.07c-.8-.14-1.6-.25-2.39-.45a12.73,12.73,0,0,1-7.4-4.73,15.11,15.11,0,0,1-2.73-6.62c-.09-.54-.17-1.08-.26-1.63V17.6a12.84,12.84,0,0,1,5.2.92,13.78,13.78,0,0,1,7.91,7.31s.05.05.11.1c0-1.79,0-3.54,0-5.3a1.33,1.33,0,0,0-.42-1.07,10.85,10.85,0,0,1-3.38-7.78A14.37,14.37,0,0,1,283,.24c.08-.07.16-.16.24-.24h.18l.23.31a18,18,0,0,1,3,5,13.11,13.11,0,0,1,.65,8.11,13.5,13.5,0,0,1-2.68,5.23,1.67,1.67,0,0,0-.4,1.14c0,2.06,0,4.12,0,6.18v.45a.34.34,0,0,0,.16-.19,13.11,13.11,0,0,1,5.43-6.39,13.85,13.85,0,0,1,7.84-2.24V20a3.38,3.38,0,0,0-.08.34c-.18.95-.29,1.92-.54,2.86a13,13,0,0,1-4.81,7.41,14.61,14.61,0,0,1-6.78,2.66l-1.18.16v8c.21-.35.35-.72.53-1.06a13.93,13.93,0,0,1,7.95-6.91,12.45,12.45,0,0,1,4.91-.8V35c0,.14-.05.28-.08.42-.24,1.16-.39,2.35-.73,3.48a12.68,12.68,0,0,1-5.34,7.29,15.33,15.33,0,0,1-6.63,2.23l-.61.09v8c.34-.68.63-1.35,1-2a14.22,14.22,0,0,1,9-6.48,10,10,0,0,1,3.36-.33V50.1c0,.12-.06.25-.08.37-.21,1.08-.35,2.19-.64,3.24a13,13,0,0,1-4.27,6.73,14.4,14.4,0,0,1-7.19,3l-1.21.17v8c.2-.34.34-.69.51-1a7.29,7.29,0,0,1,.54-1,14.27,14.27,0,0,1,9.36-6.49,9.33,9.33,0,0,1,3-.24v2.35c0,.14-.06.28-.08.42-.15.83-.25,1.67-.45,2.48A13.47,13.47,0,0,1,293,75.23a14.08,14.08,0,0,1-7.05,3.19l-1.71.25v.54c0,2.06,0,11.58,0,13.64A1.68,1.68,0,0,1,283.28,94.58Z"/><path class="cls-4" d="M305.18,83.8v.35c0,1,0,4.74,0,7.24a14.42,14.42,0,0,1,1.77.14v-7.7l1.16-.17a9.43,9.43,0,0,0,4.76-2.16,9.09,9.09,0,0,0,2.81-4.83c.13-.56.2-1.12.3-1.68a2.93,2.93,0,0,1,0-.29V73.11a6.18,6.18,0,0,0-2,.17,9.62,9.62,0,0,0-6.33,4.38,7.19,7.19,0,0,0-.37.67,7.48,7.48,0,0,1-.34.7V73.64l.82-.11a9.76,9.76,0,0,0,4.86-2A8.75,8.75,0,0,0,315.54,67c.2-.72.3-1.46.44-2.19a1.84,1.84,0,0,1,0-.25V62.93a6.67,6.67,0,0,0-2.27.22,9.62,9.62,0,0,0-6.1,4.38c-.26.42-.45.87-.68,1.33v-5.4l.42-.06a10.34,10.34,0,0,0,4.47-1.51A8.49,8.49,0,0,0,315.48,57c.23-.77.34-1.57.5-2.36,0-.09,0-.19,0-.28V52.74a8.19,8.19,0,0,0-3.32.54,9.39,9.39,0,0,0-5.37,4.66c-.12.24-.22.48-.36.72V53.28l.8-.11a9.88,9.88,0,0,0,4.58-1.8,8.81,8.81,0,0,0,3.25-5c.17-.63.25-1.29.37-1.94a1.74,1.74,0,0,1,0-.22V42.55a9.4,9.4,0,0,0-5.3,1.51,8.92,8.92,0,0,0-3.67,4.32.23.23,0,0,1-.1.13v-.3c0-1.4,0-2.79,0-4.18a1.16,1.16,0,0,1,.27-.78A9,9,0,0,0,309,39.72a8.88,8.88,0,0,0-.44-5.48,12.41,12.41,0,0,0-2-3.38l-.16-.21h-.12l-.16.16a9.69,9.69,0,0,0-3.53,7.8,7.32,7.32,0,0,0,2.28,5.27.92.92,0,0,1,.29.72c0,1.18,0,2.37,0,3.58a.3.3,0,0,1-.08-.07,9.29,9.29,0,0,0-5.35-4.94,8.73,8.73,0,0,0-3.51-.62v1.59c.06.37.11.73.18,1.1a10.13,10.13,0,0,0,1.84,4.47,8.61,8.61,0,0,0,5,3.2c.53.14,1.08.21,1.62.31l.28,0v5.11a.38.38,0,0,1-.07-.11,9.41,9.41,0,0,0-5.92-5.11,7.86,7.86,0,0,0-2.93-.41v1.53c.08.49.14,1,.24,1.47a9.7,9.7,0,0,0,2.25,4.72,8.85,8.85,0,0,0,4.76,2.69c.45.11.91.17,1.36.25l.31.05v5.12a1.77,1.77,0,0,1-.12-.24,9.68,9.68,0,0,0-8.54-5.43l-.26,0v1.53c.1.58.17,1.16.3,1.73a9.38,9.38,0,0,0,2.3,4.57,9,9,0,0,0,5,2.65c.37.07.75.13,1.13.17.17,0,.23.09.23.26v4.9c-.05-.06-.08-.08-.09-.12a9.4,9.4,0,0,0-6.55-5.27,15.28,15.28,0,0,0-1.92-.26c-.12,0-.25,0-.38,0v1.54c.08.47.12.95.24,1.41A8.69,8.69,0,0,0,305.18,83.8Z"/><path class="cls-4" d="M262.16,94.58h-.39a.77.77,0,0,1-.44-.8c0-1,0-5.73,0-6.77v-.25A6.31,6.31,0,0,1,255,81.15c-.08-.34-.11-.69-.17-1V79a1.32,1.32,0,0,1,.28,0,10.8,10.8,0,0,1,1.39.19A6.79,6.79,0,0,1,261.26,83l.07.09c0-1.2,0-2.38,0-3.55,0-.13,0-.18-.17-.19a7.37,7.37,0,0,1-.82-.13,6.58,6.58,0,0,1-3.62-1.92A7,7,0,0,1,255.06,74c-.09-.42-.14-.84-.21-1.26V71.62l.19,0a7,7,0,0,1,6.19,3.94s0,.1.09.18V72l-.22,0c-.33-.06-.66-.1-1-.18a6.41,6.41,0,0,1-3.46-2A7.08,7.08,0,0,1,255,66.41c-.07-.36-.11-.71-.17-1.07V64.23a5.62,5.62,0,0,1,2.12.3,6.79,6.79,0,0,1,4.3,3.71.23.23,0,0,0,.05.07v-3.7l-.2,0c-.39-.08-.79-.13-1.18-.22A6.27,6.27,0,0,1,256.31,62,7.35,7.35,0,0,1,255,58.79c0-.27-.09-.53-.13-.8V56.84a6.19,6.19,0,0,1,2.55.45,6.75,6.75,0,0,1,3.87,3.58s0,0,.06.05c0-.88,0-1.74,0-2.6a.65.65,0,0,0-.21-.52A5.33,5.33,0,0,1,259.47,54,7.05,7.05,0,0,1,262,48.32l.12-.11h.08l.12.15a8.91,8.91,0,0,1,1.45,2.45,6.46,6.46,0,0,1,.31,4,6.57,6.57,0,0,1-1.31,2.56.81.81,0,0,0-.19.56c0,1,0,2,0,3v.22a.16.16,0,0,0,.08-.09,6.44,6.44,0,0,1,2.66-3.14,6.79,6.79,0,0,1,3.85-1.09V58a1,1,0,0,0,0,.17c-.09.47-.15.94-.27,1.4a6.42,6.42,0,0,1-2.36,3.64,7.22,7.22,0,0,1-3.32,1.3l-.58.08v3.9c.1-.17.17-.35.26-.52a6.84,6.84,0,0,1,3.9-3.38,5.79,5.79,0,0,1,2.41-.39v1.15a1.55,1.55,0,0,0,0,.21c-.12.57-.2,1.15-.36,1.71a6.24,6.24,0,0,1-2.62,3.57A7.52,7.52,0,0,1,262.94,72l-.3.05v3.91c.17-.33.31-.66.49-1a7,7,0,0,1,4.43-3.18,5.09,5.09,0,0,1,1.65-.16v1.15a1.06,1.06,0,0,0,0,.19c-.11.52-.17,1.06-.32,1.58a6.31,6.31,0,0,1-2.09,3.3,7.15,7.15,0,0,1-3.53,1.47l-.59.08V83.3c.1-.17.17-.34.25-.51a4.45,4.45,0,0,1,.26-.48,7,7,0,0,1,4.59-3.18,4.53,4.53,0,0,1,1.47-.12v1.15c0,.07,0,.14,0,.21-.07.4-.12.82-.21,1.22a6.65,6.65,0,0,1-2,3.5,6.86,6.86,0,0,1-3.45,1.57l-.84.12V87c0,1,0,5.68,0,6.69A.84.84,0,0,1,262.16,94.58Z"/><path class="cls-5" d="M144.35,186.44C184.26,127.53,252.86,98,323.05,102l-3.59,3.22a37.43,37.43,0,0,1,3.91-11.38c5.54-10.13,14.69-17.41,24.27-23.39-7.43,7.65-15.08,15.82-18.9,25.86a34.16,34.16,0,0,0-2.2,12.6l-3.48.33c-64,3.36-121.76,25-169.18,68.8-2.57,2.3-6.75,6.33-9.53,8.45Z"/><path class="cls-5" d="M242.12,102.21c19.61-15.77,56.26-22,79.32-11.17-27.07.72-52.92,5.37-79.32,11.17Z"/><path class="cls-6" d="M370.16,243.1c13.18-17.31,18.63-38.84,20.06-60.11,1.16-14.51-.56-29.09-2-43.55H393c9,0,18.19-.3,27.21-.8,9-.81,18.31-.83,26.68-4.71a23.85,23.85,0,0,1-5.77,4.06c-14.91,7.07-31.59,9-47.88,10.34l4.27-5.16c.71,4.45,1.41,8.91,2,13.39.16,2.28.54,8,.67,10.17a132.83,132.83,0,0,1-1.4,23.82c-2.29,13.41-6.79,26.81-14.6,38-3.83,5.45-8.47,10.83-14,14.52Z"/></svg>