<?xml version="1.0" standalone="no"?>
<!DOCTYPE svg PUBLIC "-//W3C//DTD SVG 20010904//EN"
 "http://www.w3.org/TR/2001/REC-SVG-20010904/DTD/svg10.dtd">
<svg version="1.0" xmlns="http://www.w3.org/2000/svg"
 width="200.000000pt" height="200.000000pt" viewBox="0 0 200.000000 200.000000"
 preserveAspectRatio="xMidYMid meet">
<metadata>
Created by potrace 1.11, written by Peter Selinger 2001-2013
</metadata>
<g transform="translate(0.000000,200.000000) scale(0.100000,-0.100000)"
fill="#000000" stroke="none">
<path d="M131 1482 c-71 -35 -76 -53 -76 -245 0 -191 8 -223 65 -252 42 -22
106 -19 130 5 16 16 20 17 20 5 0 -11 12 -15 50 -15 l50 0 0 140 0 140 -85 0
-85 0 0 70 c0 40 4 70 10 70 6 0 10 -25 10 -55 l0 -55 76 0 77 0 -7 62 c-8 76
-25 104 -79 129 -53 23 -112 24 -156 1z m66 -284 c-2 -13 -4 -5 -4 17 -1 22 1
32 4 23 2 -10 2 -28 0 -40z m33 -67 c0 -44 -8 -71 -21 -71 -5 0 -9 25 -9 55 0
42 3 55 15 55 11 0 15 -11 15 -39z"/>
<path d="M1525 1486 c-50 -22 -68 -51 -73 -115 -5 -74 12 -109 79 -158 l50
-38 -67 -3 -66 -3 6 -62 c4 -34 14 -73 22 -85 21 -32 73 -52 135 -52 101 0
149 47 149 144 0 81 -33 133 -118 182 -44 26 -66 62 -56 89 13 33 34 7 34 -41
0 -24 2 -25 63 -22 l62 3 0 52 c-1 59 -20 87 -72 109 -41 17 -109 17 -148 0z
m93 -380 c-4 -59 -22 -50 -26 13 -3 49 -2 53 13 41 11 -9 15 -26 13 -54z"/>
<path d="M400 1235 l0 -255 120 0 120 0 0 55 0 55 -45 0 -45 0 0 50 0 50 40 0
40 0 0 50 0 50 -40 0 -40 0 0 45 0 45 40 0 40 0 0 55 0 55 -115 0 -115 0 0
-255z"/>
<path d="M670 1235 l0 -255 70 0 70 0 0 110 c0 61 4 110 9 110 16 0 21 -30 21
-126 l0 -94 65 0 65 0 0 109 c0 104 -1 109 -26 135 -18 18 -22 26 -12 26 38 0
51 119 20 180 -23 46 -62 59 -184 59 l-98 1 0 -255z m168 126 c5 -30 -6 -71
-18 -71 -6 0 -10 23 -10 51 0 36 4 49 13 47 6 -3 13 -15 15 -27z"/>
<path d="M1010 1235 l0 -255 60 0 60 0 1 123 1 122 14 -90 c26 -170 19 -155
69 -155 25 0 45 1 46 3 0 1 8 56 18 122 l18 120 2 -122 1 -123 60 0 60 0 0
255 0 255 -89 0 -89 0 -5 -32 c-4 -18 -9 -62 -13 -98 -8 -75 -9 -74 -24 43
l-12 87 -89 0 -89 0 0 -255z"/>
<path d="M1812 1398 c3 -71 4 -73 31 -76 19 -2 29 2 34 14 4 10 2 19 -5 22 -7
2 -12 25 -12 58 0 51 -1 54 -25 54 -26 0 -26 -1 -23 -72z"/>
<path d="M1805 1253 c-3 -27 -9 -60 -11 -75 -5 -25 -2 -28 19 -28 16 0 27 7
30 18 4 16 5 16 6 0 1 -11 9 -18 22 -18 20 0 21 3 14 68 -4 37 -9 70 -12 75
-2 4 -17 7 -33 7 -27 0 -29 -3 -35 -47z"/>
<path d="M1800 1054 l0 -75 43 3 42 3 2 60 c2 70 -7 85 -53 85 l-34 0 0 -76z"/>
<path d="M58 954 c-11 -3 -18 -15 -18 -30 0 -16 4 -23 11 -18 9 5 10 -17 5
-82 -4 -49 -10 -97 -12 -106 -5 -16 2 -18 48 -18 75 0 178 24 246 57 l59 28
54 -27 c117 -58 265 -74 365 -40 29 10 82 38 119 62 76 49 61 51 167 -21 116
-79 207 -79 306 0 21 15 64 42 97 59 70 35 70 35 183 -46 74 -52 121 -71 180
-72 36 0 42 3 42 21 0 15 -4 19 -16 15 -15 -6 -16 2 -9 76 3 46 11 84 16 86 5
2 9 10 9 18 0 20 -157 19 -254 -1 -67 -14 -79 -14 -132 1 -94 25 -255 30 -354
10 -46 -10 -97 -23 -114 -30 -27 -11 -40 -9 -113 16 -99 34 -223 46 -303 29
-30 -6 -94 -30 -142 -52 l-86 -41 -59 36 c-32 19 -78 43 -103 51 -47 17 -162
28 -192 19z"/>
<path d="M37 673 c-4 -3 -7 -42 -7 -85 l0 -78 49 0 c28 0 53 5 56 10 4 6 11 5
19 -3 8 -8 29 -11 52 -9 l39 4 -1 56 -2 57 7 -55 6 -55 98 -3 c92 -3 97 -2 97
18 0 13 -7 20 -20 20 -16 0 -20 7 -20 31 0 45 -16 69 -48 69 -16 0 -34 -6 -40
-12 -10 -10 -14 -8 -18 10 -7 25 -54 32 -54 8 0 -11 -10 -13 -42 -9 -33 5 -44
2 -55 -12 -12 -18 -13 -18 -13 1 0 11 -5 25 -12 32 -13 13 -80 17 -91 5z m275
-110 c-7 -36 -12 -27 -11 20 0 30 3 36 8 23 4 -11 6 -30 3 -43z m-152 23 c0
-3 -4 -8 -10 -11 -5 -3 -10 -1 -10 4 0 6 5 11 10 11 6 0 10 -2 10 -4z"/>
<path d="M480 595 l0 -85 55 0 c30 0 55 4 55 9 0 6 12 4 26 -4 27 -14 53 -10
67 9 5 8 10 7 15 -2 11 -16 74 -20 79 -5 3 7 14 6 34 -4 26 -13 32 -13 52 0
18 11 27 12 38 3 9 -6 42 -10 77 -8 l62 4 0 39 c0 21 5 39 10 39 6 0 10 -10
10 -23 0 -13 6 -31 13 -41 16 -22 65 -25 78 -5 6 10 9 11 9 2 0 -9 22 -13 75
-13 68 0 75 2 75 20 0 13 -7 20 -20 20 -16 0 -20 7 -20 34 0 47 -9 66 -30 66
-10 0 -20 7 -24 15 -3 8 -17 15 -31 15 -20 0 -25 -5 -25 -26 0 -20 -3 -24 -12
-16 -19 15 -158 15 -158 0 0 -9 -3 -9 -12 0 -17 17 -63 15 -79 -4 -11 -14 -13
-14 -21 0 -12 21 -62 21 -79 0 -11 -14 -13 -14 -21 0 -11 19 -59 21 -76 4 -9
-9 -15 -9 -24 0 -15 15 -61 15 -76 0 -8 -8 -12 -9 -12 -1 0 23 -32 43 -71 43
l-39 0 0 -85z m107 -7 c-3 -8 -6 -5 -6 6 -1 11 2 17 5 13 3 -3 4 -12 1 -19z
m203 -4 c0 -14 -3 -14 -15 -4 -8 7 -15 14 -15 16 0 2 7 4 15 4 8 0 15 -7 15
-16z m-93 -16 c-3 -8 -6 -5 -6 6 -1 11 2 17 5 13 3 -3 4 -12 1 -19z m463 12
c0 -5 -9 -10 -19 -10 -11 0 -22 -8 -24 -17 -3 -11 -5 -7 -6 10 -1 22 3 27 24
27 14 0 25 -4 25 -10z"/>
<path d="M1340 595 c0 -84 0 -85 25 -85 23 0 24 3 28 68 l3 67 2 -67 2 -68 75
0 c43 0 75 -4 75 -10 0 -5 14 -10 30 -10 17 0 30 5 30 11 0 5 4 8 9 4 5 -3 17
2 25 11 9 8 16 11 16 5 0 -6 21 -11 50 -11 33 0 50 4 50 13 0 8 3 8 8 1 13
-19 39 -23 66 -9 15 8 28 10 31 4 4 -5 28 -9 56 -9 43 0 49 2 49 21 0 18 -5
21 -31 17 l-31 -5 5 49 c4 27 4 55 0 63 -7 19 -53 20 -53 1 0 -11 -9 -13 -35
-9 -25 4 -41 1 -54 -11 -16 -15 -19 -15 -24 -1 -8 18 -58 20 -75 3 -10 -10
-14 -10 -21 0 -5 9 -31 12 -82 11 -143 -2 -169 0 -169 16 0 10 -10 15 -30 15
l-30 0 0 -85z m520 -15 c0 -5 -11 -10 -25 -10 -14 0 -25 5 -25 10 0 6 11 10
25 10 14 0 25 -4 25 -10z"/>
</g>
</svg>
